<svg width="352" height="48" viewBox="0 0 352 48" fill="none" xmlns="http://www.w3.org/2000/svg">
<path d="M13.4475 9.01395C15.0333 9.01395 16.5479 9.32395 17.9913 9.94395C19.4346 10.5639 20.6796 11.3973 21.7263 12.4439C22.7729 13.4906 23.6063 14.7356 24.2263 16.1789C24.8463 17.6223 25.1563 19.1369 25.1563 20.7227C25.1563 22.8369 24.6329 24.7935 23.5863 26.5927C22.5396 28.3919 21.1167 29.8148 19.3175 30.8614C17.5183 31.9081 15.5617 32.4314 13.4475 32.4314C12.2892 32.4314 11.1813 32.2789 10.1238 31.9739C10.7129 31.0181 11.1092 30.1744 11.3125 29.4427L12.1363 26.2414C12.3396 26.6273 12.7158 26.9677 13.265 27.2627C13.8142 27.5577 14.3933 27.7052 15.0025 27.7052C16.2225 27.7052 17.315 27.3544 18.28 26.6527C19.245 25.951 19.9921 24.9906 20.5213 23.7714C21.0504 22.5523 21.3146 21.1802 21.3138 19.6552C21.3138 17.846 20.6175 16.2756 19.225 14.9439C17.8325 13.6123 16.0588 12.9464 13.9038 12.9464C12.5821 12.9464 11.3725 13.1702 10.275 13.6177C9.1775 14.0652 8.29334 14.6498 7.6225 15.3714C6.95167 16.0931 6.43834 16.8756 6.0825 17.7189C5.72667 18.5623 5.54875 19.411 5.54875 20.2652C5.54875 21.3219 5.74709 22.2469 6.14375 23.0402C6.54042 23.8335 7.135 24.3927 7.9275 24.7177C8.07 24.7785 8.19209 24.7835 8.29375 24.7327C8.39542 24.6819 8.46667 24.5852 8.5075 24.4427C8.65 23.9344 8.73125 23.6194 8.75125 23.4977C8.83292 23.2744 8.78209 23.061 8.59875 22.8577C8.07042 22.2685 7.80625 21.506 7.80625 20.5702C7.80625 19.0252 8.34 17.6989 9.4075 16.5914C10.475 15.4839 11.8725 14.9302 13.6 14.9302C15.125 14.9302 16.3142 15.3469 17.1675 16.1802C18.0208 17.0135 18.4479 18.101 18.4488 19.4427C18.4488 20.561 18.2963 21.5927 17.9913 22.5377C17.6863 23.4827 17.2492 24.2398 16.68 24.8089C16.1108 25.3781 15.4604 25.6627 14.7288 25.6627C14.1188 25.6627 13.6208 25.4389 13.235 24.9914C12.8492 24.5439 12.7271 24.0152 12.8688 23.4052C12.9504 23.1202 13.0571 22.7544 13.1888 22.3077C13.3204 21.861 13.4321 21.4798 13.5238 21.1639C13.6154 20.8481 13.7017 20.5077 13.7825 20.1427C13.8633 19.7777 13.9042 19.4727 13.905 19.2277C13.905 18.7194 13.7729 18.3027 13.5088 17.9777C13.2446 17.6527 12.8583 17.4902 12.35 17.4902C11.72 17.4902 11.1913 17.7798 10.7638 18.3589C10.3363 18.9381 10.1229 19.6648 10.1238 20.5389C10.1238 20.8639 10.1492 21.1789 10.2 21.4839C10.2508 21.7889 10.3067 22.0127 10.3675 22.1552L10.4588 22.3689C9.62542 25.9873 9.11709 28.1114 8.93375 28.7414C8.77125 29.5139 8.71042 30.4185 8.75125 31.4552C6.65709 30.5202 4.96459 29.0869 3.67375 27.1552C2.38292 25.2235 1.7375 23.0789 1.7375 20.7214C1.7375 17.4889 2.88084 14.7294 5.1675 12.4427C7.45417 10.156 10.2138 9.0127 13.4463 9.0127L13.4475 9.01395Z" fill="#444444"/>
<g clip-path="url(#clip0_1_618)">
<path d="M46.5 10.417C49.7861 10.417 50.1719 10.4316 51.4707 10.4902C52.6719 10.5439 53.3213 10.7441 53.7559 10.915C54.332 11.1396 54.7422 11.4033 55.1719 11.833C55.6016 12.2627 55.8701 12.6729 56.0898 13.249C56.2559 13.6836 56.4609 14.333 56.5146 15.5342C56.5732 16.833 56.5879 17.2187 56.5879 20.5049C56.5879 23.791 56.5732 24.1768 56.5146 25.4756C56.4609 26.6768 56.2607 27.3262 56.0898 27.7607C55.8652 28.3369 55.6016 28.7471 55.1719 29.1768C54.7422 29.6064 54.332 29.875 53.7559 30.0947C53.3213 30.2607 52.6719 30.4658 51.4707 30.5195C50.1719 30.5781 49.7861 30.5928 46.5 30.5928C43.2139 30.5928 42.8281 30.5781 41.5293 30.5195C40.3281 30.4658 39.6787 30.2656 39.2441 30.0947C38.668 29.8701 38.2578 29.6064 37.8281 29.1768C37.3984 28.7471 37.1299 28.3369 36.9102 27.7607C36.7441 27.3262 36.5391 26.6768 36.4854 25.4756C36.4268 24.1768 36.4121 23.791 36.4121 20.5049C36.4121 17.2187 36.4268 16.833 36.4854 15.5342C36.5391 14.333 36.7393 13.6836 36.9102 13.249C37.1348 12.6729 37.3984 12.2627 37.8281 11.833C38.2578 11.4033 38.668 11.1348 39.2441 10.915C39.6787 10.749 40.3281 10.5439 41.5293 10.4902C42.8281 10.4268 43.2139 10.417 46.5 10.417V10.417ZM46.5 8.2002C43.1602 8.2002 42.7402 8.21484 41.4268 8.27344C40.1182 8.33203 39.2246 8.54199 38.4434 8.84473C37.6328 9.15723 36.9492 9.58203 36.2656 10.2656C35.582 10.9492 35.1621 11.6377 34.8447 12.4434C34.542 13.2246 34.332 14.1182 34.2734 15.4316C34.2148 16.7402 34.2002 17.1602 34.2002 20.5C34.2002 23.8398 34.2148 24.2598 34.2734 25.5732C34.332 26.8818 34.542 27.7754 34.8447 28.5615C35.1572 29.3721 35.582 30.0557 36.2656 30.7393C36.9492 31.4228 37.6377 31.8428 38.4434 32.1601C39.2246 32.4629 40.1182 32.6728 41.4316 32.7314C42.7451 32.79 43.1602 32.8047 46.5049 32.8047C49.8496 32.8047 50.2646 32.79 51.5781 32.7314C52.8867 32.6728 53.7803 32.4629 54.5664 32.1601C55.3769 31.8476 56.0605 31.4228 56.7441 30.7393C57.4277 30.0557 57.8477 29.3672 58.165 28.5615C58.4678 27.7803 58.6777 26.8867 58.7363 25.5732C58.7949 24.2598 58.8096 23.8447 58.8096 20.5C58.8096 17.1553 58.7949 16.7402 58.7363 15.4268C58.6777 14.1182 58.4678 13.2246 58.165 12.4385C57.8525 11.6279 57.4277 10.9443 56.7441 10.2607C56.0605 9.57715 55.3721 9.15723 54.5664 8.83984C53.7852 8.53711 52.8916 8.32715 51.5781 8.26855C50.2598 8.21484 49.8398 8.2002 46.5 8.2002V8.2002Z" fill="black"/>
<path d="M46.5 14.1816C43.0137 14.1816 40.1816 17.0088 40.1816 20.5C40.1816 23.9912 43.0137 26.8184 46.5 26.8184C49.9863 26.8184 52.8184 23.9863 52.8184 20.5C52.8184 17.0137 49.9863 14.1816 46.5 14.1816V14.1816ZM46.5 24.6016C44.2344 24.6016 42.3984 22.7656 42.3984 20.5C42.3984 18.2344 44.2344 16.3984 46.5 16.3984C48.7656 16.3984 50.6016 18.2344 50.6016 20.5C50.6016 22.7656 48.7656 24.6016 46.5 24.6016Z" fill="black"/>
<path d="M53.0674 15.4072C53.8818 15.4072 54.542 14.747 54.542 13.9326C54.542 13.1182 53.8818 12.458 53.0674 12.458C52.253 12.458 51.5928 13.1182 51.5928 13.9326C51.5928 14.747 52.253 15.4072 53.0674 15.4072Z" fill="black"/>
</g>
<defs>
<clipPath id="clip0_1_618">
<rect width="25" height="25" fill="white" transform="translate(34 8)"/>
</clipPath>
</defs>
</svg>
